<mxfile host="app.diagrams.net" agent="Mozilla/5.0 (Macintosh; Intel Mac OS X 10_15_7) AppleWebKit/537.36 (KHTML, like Gecko) Chrome/130.0.0.0 Safari/537.36" version="24.8.4" pages="2">
  <diagram name="Linux Arch" id="Oqn8Dt5n3YhOG3Y8UFyX">
    <mxGraphModel dx="1368" dy="1967" grid="1" gridSize="10" guides="1" tooltips="1" connect="1" arrows="1" fold="1" page="1" pageScale="1" pageWidth="850" pageHeight="1100" math="0" shadow="0">
      <root>
        <mxCell id="0" />
        <mxCell id="1" parent="0" />
        <mxCell id="PbRaqF4SO2aGl-qpWVCV-4" value="" style="ellipse;whiteSpace=wrap;html=1;aspect=fixed;fillColor=#FF8000;" vertex="1" parent="1">
          <mxGeometry x="171.5" y="-14" width="508" height="508" as="geometry" />
        </mxCell>
        <mxCell id="PbRaqF4SO2aGl-qpWVCV-1" value="" style="ellipse;whiteSpace=wrap;html=1;aspect=fixed;fillColor=#00CC00;" vertex="1" parent="1">
          <mxGeometry x="225" y="40" width="400" height="400" as="geometry" />
        </mxCell>
        <mxCell id="PbRaqF4SO2aGl-qpWVCV-2" value="" style="ellipse;whiteSpace=wrap;html=1;aspect=fixed;fillColor=#8A8A00;" vertex="1" parent="1">
          <mxGeometry x="283" y="97.5" width="285" height="285" as="geometry" />
        </mxCell>
        <mxCell id="PbRaqF4SO2aGl-qpWVCV-3" value="" style="ellipse;whiteSpace=wrap;html=1;aspect=fixed;fillColor=#007FFF;" vertex="1" parent="1">
          <mxGeometry x="329.75" y="144.25" width="191.5" height="191.5" as="geometry" />
        </mxCell>
        <mxCell id="PbRaqF4SO2aGl-qpWVCV-5" value="Applications" style="text;html=1;align=center;verticalAlign=middle;whiteSpace=wrap;rounded=0;fontSize=20;fontColor=#FFFFFF;" vertex="1" parent="1">
          <mxGeometry x="370.5" y="-10" width="110" height="50" as="geometry" />
        </mxCell>
        <mxCell id="PbRaqF4SO2aGl-qpWVCV-6" value="Shell" style="text;html=1;align=center;verticalAlign=middle;whiteSpace=wrap;rounded=0;fontSize=20;fontColor=#FFFFFF;" vertex="1" parent="1">
          <mxGeometry x="370" y="47.5" width="110" height="50" as="geometry" />
        </mxCell>
        <mxCell id="PbRaqF4SO2aGl-qpWVCV-7" value="Kernel" style="text;html=1;align=center;verticalAlign=middle;whiteSpace=wrap;rounded=0;fontSize=20;fontColor=#FFFFFF;" vertex="1" parent="1">
          <mxGeometry x="370.5" y="94.25" width="110" height="50" as="geometry" />
        </mxCell>
        <mxCell id="PbRaqF4SO2aGl-qpWVCV-8" value="Hardware" style="text;html=1;align=center;verticalAlign=middle;whiteSpace=wrap;rounded=0;fontSize=20;fontColor=#FAFAFA;" vertex="1" parent="1">
          <mxGeometry x="370" y="215" width="110" height="50" as="geometry" />
        </mxCell>
        <mxCell id="PbRaqF4SO2aGl-qpWVCV-9" value="Utilities" style="text;html=1;align=center;verticalAlign=middle;whiteSpace=wrap;rounded=0;fontSize=20;fontColor=#FCFCFC;" vertex="1" parent="1">
          <mxGeometry x="370.5" y="440" width="110" height="50" as="geometry" />
        </mxCell>
      </root>
    </mxGraphModel>
  </diagram>
  <diagram id="blnbZ99_SnV5u-PNSNA-" name="Linux Arch Indetail">
    <mxGraphModel dx="2316" dy="977" grid="1" gridSize="10" guides="1" tooltips="1" connect="1" arrows="1" fold="1" page="1" pageScale="1" pageWidth="850" pageHeight="1100" background="#ffffff" math="0" shadow="0">
      <root>
        <mxCell id="0" />
        <mxCell id="1" parent="0" />
        <mxCell id="yKpZXCygpYI2y_Z9jmT1-1" value="" style="shape=cube;whiteSpace=wrap;html=1;boundedLbl=1;backgroundOutline=1;darkOpacity=0.05;darkOpacity2=0.1;fontStyle=1" vertex="1" parent="1">
          <mxGeometry x="-315" y="770" width="740" height="120" as="geometry" />
        </mxCell>
        <mxCell id="yKpZXCygpYI2y_Z9jmT1-2" value="" style="shape=image;html=1;verticalAlign=top;verticalLabelPosition=bottom;labelBackgroundColor=#ffffff;imageAspect=0;aspect=fixed;image=https://cdn2.iconfinder.com/data/icons/crystalproject/128x128/devices/hdd_unmount.png;fontStyle=1" vertex="1" parent="1">
          <mxGeometry x="-250" y="798" width="64" height="64" as="geometry" />
        </mxCell>
        <mxCell id="yKpZXCygpYI2y_Z9jmT1-3" value="" style="image;html=1;image=img/lib/clip_art/computers/Printer_128x128.png;fontStyle=1" vertex="1" parent="1">
          <mxGeometry x="-130" y="797" width="80" height="66" as="geometry" />
        </mxCell>
        <mxCell id="yKpZXCygpYI2y_Z9jmT1-4" value="" style="fontColor=#0066CC;verticalAlign=top;verticalLabelPosition=bottom;labelPosition=center;align=center;html=1;outlineConnect=0;fillColor=#CCCCCC;strokeColor=#6881B3;gradientColor=none;gradientDirection=north;strokeWidth=2;shape=mxgraph.networks.usb_stick;fontStyle=1" vertex="1" parent="1">
          <mxGeometry x="10" y="800" width="25" height="60" as="geometry" />
        </mxCell>
        <mxCell id="yKpZXCygpYI2y_Z9jmT1-5" value="" style="image;aspect=fixed;perimeter=ellipsePerimeter;html=1;align=center;shadow=0;dashed=0;spacingTop=3;image=img/lib/active_directory/cd_dvd.svg;fontStyle=1" vertex="1" parent="1">
          <mxGeometry x="50" y="800" width="60" height="60" as="geometry" />
        </mxCell>
        <mxCell id="yKpZXCygpYI2y_Z9jmT1-8" value="" style="sketch=0;pointerEvents=1;shadow=0;dashed=0;html=1;strokeColor=none;fillColor=#434445;aspect=fixed;labelPosition=center;verticalLabelPosition=bottom;verticalAlign=top;align=center;outlineConnect=0;shape=mxgraph.vvd.memory;fontStyle=1" vertex="1" parent="1">
          <mxGeometry x="150" y="810.55" width="102.37" height="38.9" as="geometry" />
        </mxCell>
        <mxCell id="yKpZXCygpYI2y_Z9jmT1-10" value="" style="sketch=0;pointerEvents=1;shadow=0;dashed=0;html=1;strokeColor=none;fillColor=#434445;aspect=fixed;labelPosition=center;verticalLabelPosition=bottom;verticalAlign=top;align=center;outlineConnect=0;shape=mxgraph.vvd.cpu;fontStyle=1" vertex="1" parent="1">
          <mxGeometry x="310" y="800" width="60" height="60" as="geometry" />
        </mxCell>
        <mxCell id="yKpZXCygpYI2y_Z9jmT1-11" value="" style="editableCssRules=.*;html=1;shape=image;verticalLabelPosition=bottom;labelBackgroundColor=#ffffff;verticalAlign=top;aspect=fixed;imageAspect=0;image=data:image/svg+xml,PHN2ZyB4bWxucz0iaHR0cDovL3d3dy53My5vcmcvMjAwMC9zdmciIHhtbG5zOnY9Imh0dHBzOi8vdmVjdGEuaW8vbmFubyIgd2lkdGg9IjE3IiBoZWlnaHQ9IjE1IiB2aWV3Qm94PSIwIDAgMTcgMTUiPiYjeGE7CTxzdHlsZSB0eXBlPSJ0ZXh0L2NzcyI+JiN4YTsJLnN0MHtmaWxsOiM0Mjg1ZjQ7fSYjeGE7CTwvc3R5bGU+JiN4YTsJPHBhdGggY2xhc3M9InN0MCIgZD0iTTIgN2gxNEw5IDB6bTcuNSAySDZ2NmgxLjV2LTJoMmExLjU0IDEuNTQgMCAwIDAgMS41LTEuNXYtMUExLjU0IDEuNTQgMCAwIDAgOS41IDl6bTAgMi41aC0ydi0xaDJ6bS00LjUtMVY5SDEuNUExLjU0IDEuNTQgMCAwIDAgMCAxMC41djNBMS41NCAxLjU0IDAgMCAwIDEuNSAxNUg1di0xLjVIMS41di0zek0xNS41IDl2NC41aC0yVjlIMTJ2NC41YTEuNTQgMS41NCAwIDAgMCAxLjUgMS41aDJhMS41NCAxLjU0IDAgMCAwIDEuNS0xLjVWOXoiLz4mI3hhOzwvc3ZnPg==;fontStyle=1" vertex="1" parent="1">
          <mxGeometry x="326.5" y="818.09" width="27" height="23.82" as="geometry" />
        </mxCell>
        <mxCell id="yKpZXCygpYI2y_Z9jmT1-13" value="Hard Disk" style="text;html=1;align=center;verticalAlign=middle;whiteSpace=wrap;rounded=0;fontSize=13;fontStyle=1" vertex="1" parent="1">
          <mxGeometry x="-290" y="860" width="125" height="29.45" as="geometry" />
        </mxCell>
        <mxCell id="yKpZXCygpYI2y_Z9jmT1-14" value="Printer" style="text;html=1;align=center;verticalAlign=middle;whiteSpace=wrap;rounded=0;fontSize=13;fontStyle=1" vertex="1" parent="1">
          <mxGeometry x="-152.5" y="863" width="125" height="29.45" as="geometry" />
        </mxCell>
        <mxCell id="yKpZXCygpYI2y_Z9jmT1-15" value="USB Devices &amp;amp; CDs" style="text;html=1;align=center;verticalAlign=middle;whiteSpace=wrap;rounded=0;fontSize=13;fontStyle=1" vertex="1" parent="1">
          <mxGeometry x="10" y="863" width="125" height="29.45" as="geometry" />
        </mxCell>
        <mxCell id="yKpZXCygpYI2y_Z9jmT1-16" value="RAM" style="text;html=1;align=center;verticalAlign=middle;whiteSpace=wrap;rounded=0;fontSize=13;fontStyle=1" vertex="1" parent="1">
          <mxGeometry x="138.68" y="860.55" width="125" height="29.45" as="geometry" />
        </mxCell>
        <mxCell id="yKpZXCygpYI2y_Z9jmT1-17" value="CPU" style="text;html=1;align=center;verticalAlign=middle;whiteSpace=wrap;rounded=0;fontSize=13;fontStyle=1" vertex="1" parent="1">
          <mxGeometry x="277.5" y="860" width="125" height="29.45" as="geometry" />
        </mxCell>
        <mxCell id="yKpZXCygpYI2y_Z9jmT1-21" value="" style="shape=cube;whiteSpace=wrap;html=1;boundedLbl=1;backgroundOutline=1;darkOpacity=0.05;darkOpacity2=0.1;fontStyle=1" vertex="1" parent="1">
          <mxGeometry x="-315" y="670" width="740" height="120" as="geometry" />
        </mxCell>
        <mxCell id="yKpZXCygpYI2y_Z9jmT1-24" value="" style="group;fontStyle=1" vertex="1" connectable="0" parent="1">
          <mxGeometry x="-490" y="700" width="120" height="60" as="geometry" />
        </mxCell>
        <mxCell id="yKpZXCygpYI2y_Z9jmT1-22" value="" style="rounded=1;whiteSpace=wrap;html=1;fillColor=#595900;fontStyle=1" vertex="1" parent="yKpZXCygpYI2y_Z9jmT1-24">
          <mxGeometry width="120" height="60" as="geometry" />
        </mxCell>
        <mxCell id="yKpZXCygpYI2y_Z9jmT1-23" value="&lt;font color=&quot;#fcfcfc&quot; style=&quot;font-size: 19px;&quot;&gt;Kernel&lt;/font&gt;" style="text;html=1;align=center;verticalAlign=middle;whiteSpace=wrap;rounded=0;fontSize=19;fontStyle=1" vertex="1" parent="yKpZXCygpYI2y_Z9jmT1-24">
          <mxGeometry x="9.6" y="15.28" width="110.39999999999999" height="29.45" as="geometry" />
        </mxCell>
        <mxCell id="yKpZXCygpYI2y_Z9jmT1-26" value="" style="group;fontStyle=1" vertex="1" connectable="0" parent="1">
          <mxGeometry x="-490" y="803" width="120" height="60" as="geometry" />
        </mxCell>
        <mxCell id="yKpZXCygpYI2y_Z9jmT1-27" value="" style="rounded=1;whiteSpace=wrap;html=1;fillColor=#595900;fontStyle=1" vertex="1" parent="yKpZXCygpYI2y_Z9jmT1-26">
          <mxGeometry width="120" height="60" as="geometry" />
        </mxCell>
        <mxCell id="yKpZXCygpYI2y_Z9jmT1-28" value="&lt;font color=&quot;#fcfcfc&quot; style=&quot;font-size: 19px;&quot;&gt;Hardware&lt;/font&gt;" style="text;html=1;align=center;verticalAlign=middle;whiteSpace=wrap;rounded=0;fontSize=19;fontStyle=1" vertex="1" parent="yKpZXCygpYI2y_Z9jmT1-26">
          <mxGeometry x="9.6" y="15.28" width="110.39999999999999" height="29.45" as="geometry" />
        </mxCell>
        <mxCell id="yKpZXCygpYI2y_Z9jmT1-29" value="" style="image;html=1;image=img/lib/clip_art/general/Full_Folder_128x128.png;fontStyle=1" vertex="1" parent="1">
          <mxGeometry x="-257.5" y="695" width="60" height="70" as="geometry" />
        </mxCell>
        <mxCell id="yKpZXCygpYI2y_Z9jmT1-30" value="Virtual FS" style="text;html=1;align=center;verticalAlign=middle;whiteSpace=wrap;rounded=0;fontSize=13;fontStyle=1" vertex="1" parent="1">
          <mxGeometry x="-290" y="760.55" width="125" height="29.45" as="geometry" />
        </mxCell>
        <mxCell id="yKpZXCygpYI2y_Z9jmT1-31" value="" style="sketch=0;points=[[0,0,0],[0.25,0,0],[0.5,0,0],[0.75,0,0],[1,0,0],[0,1,0],[0.25,1,0],[0.5,1,0],[0.75,1,0],[1,1,0],[0,0.25,0],[0,0.5,0],[0,0.75,0],[1,0.25,0],[1,0.5,0],[1,0.75,0]];outlineConnect=0;fontColor=#232F3E;fillColor=#7AA116;strokeColor=#ffffff;dashed=0;verticalLabelPosition=bottom;verticalAlign=top;align=center;html=1;fontSize=12;fontStyle=1;aspect=fixed;shape=mxgraph.aws4.resourceIcon;resIcon=mxgraph.aws4.iot_device_management;" vertex="1" parent="1">
          <mxGeometry x="-122.75" y="697.25" width="65.5" height="65.5" as="geometry" />
        </mxCell>
        <mxCell id="yKpZXCygpYI2y_Z9jmT1-32" value="Device management" style="text;html=1;align=center;verticalAlign=middle;whiteSpace=wrap;rounded=0;fontSize=13;fontStyle=1" vertex="1" parent="1">
          <mxGeometry x="-152.5" y="760.55" width="125" height="29.45" as="geometry" />
        </mxCell>
        <mxCell id="yKpZXCygpYI2y_Z9jmT1-33" value="" style="image;aspect=fixed;perimeter=ellipsePerimeter;html=1;align=center;shadow=0;dashed=0;spacingTop=3;image=img/lib/active_directory/security.svg;fontStyle=1" vertex="1" parent="1">
          <mxGeometry x="35" y="700" width="40.5" height="64.29" as="geometry" />
        </mxCell>
        <mxCell id="yKpZXCygpYI2y_Z9jmT1-34" value="Security" style="text;html=1;align=center;verticalAlign=middle;whiteSpace=wrap;rounded=0;fontSize=13;fontStyle=1" vertex="1" parent="1">
          <mxGeometry x="-7.25" y="762.75" width="125" height="29.45" as="geometry" />
        </mxCell>
        <mxCell id="yKpZXCygpYI2y_Z9jmT1-35" value="" style="outlineConnect=0;dashed=0;verticalLabelPosition=bottom;verticalAlign=top;align=center;html=1;shape=mxgraph.aws3.management_console;fillColor=#F58534;gradientColor=none;fontStyle=1" vertex="1" parent="1">
          <mxGeometry x="159.84000000000003" y="703.14" width="82.68" height="58" as="geometry" />
        </mxCell>
        <mxCell id="yKpZXCygpYI2y_Z9jmT1-37" value="" style="sketch=0;pointerEvents=1;shadow=0;dashed=0;html=1;strokeColor=none;fillColor=#434445;aspect=fixed;labelPosition=center;verticalLabelPosition=bottom;verticalAlign=top;align=center;outlineConnect=0;shape=mxgraph.vvd.memory;fontStyle=1" vertex="1" parent="1">
          <mxGeometry x="176.18000000000006" y="710" width="50" height="19" as="geometry" />
        </mxCell>
        <mxCell id="yKpZXCygpYI2y_Z9jmT1-38" value="Memory Management" style="text;html=1;align=center;verticalAlign=middle;whiteSpace=wrap;rounded=0;fontSize=13;fontStyle=1" vertex="1" parent="1">
          <mxGeometry x="130.53000000000003" y="764.29" width="141.32" height="29.45" as="geometry" />
        </mxCell>
        <mxCell id="yKpZXCygpYI2y_Z9jmT1-39" value="" style="image;aspect=fixed;perimeter=ellipsePerimeter;html=1;align=center;shadow=0;dashed=0;fontColor=#4277BB;labelBackgroundColor=default;fontSize=12;spacingTop=3;image=img/lib/ibm/management/process_management.svg;fontStyle=1" vertex="1" parent="1">
          <mxGeometry x="320" y="705" width="60" height="60" as="geometry" />
        </mxCell>
        <mxCell id="yKpZXCygpYI2y_Z9jmT1-40" value="Process Management" style="text;html=1;align=center;verticalAlign=middle;whiteSpace=wrap;rounded=0;fontSize=13;fontStyle=1" vertex="1" parent="1">
          <mxGeometry x="279.34000000000003" y="762.75" width="141.32" height="29.45" as="geometry" />
        </mxCell>
        <mxCell id="yKpZXCygpYI2y_Z9jmT1-43" value="" style="shape=cube;whiteSpace=wrap;html=1;boundedLbl=1;backgroundOutline=1;darkOpacity=0.05;darkOpacity2=0.1;fontStyle=1" vertex="1" parent="1">
          <mxGeometry x="-314.75" y="640" width="740" height="50" as="geometry" />
        </mxCell>
        <mxCell id="yKpZXCygpYI2y_Z9jmT1-45" value="" style="shape=callout;whiteSpace=wrap;html=1;perimeter=calloutPerimeter;fillColor=#0066CC;fontStyle=1" vertex="1" parent="1">
          <mxGeometry x="-120" y="930" width="350" height="100" as="geometry" />
        </mxCell>
        <mxCell id="yKpZXCygpYI2y_Z9jmT1-46" value="Linux Architecture" style="text;html=1;align=center;verticalAlign=middle;whiteSpace=wrap;rounded=0;fontSize=26;fontColor=#EDEDED;fontStyle=1" vertex="1" parent="1">
          <mxGeometry x="-59" y="950" width="227.75" height="30" as="geometry" />
        </mxCell>
        <mxCell id="yKpZXCygpYI2y_Z9jmT1-49" value="" style="group;fontStyle=1" vertex="1" connectable="0" parent="1">
          <mxGeometry x="-248" y="640" width="20.34999999999991" height="50.64999999999998" as="geometry" />
        </mxCell>
        <mxCell id="yKpZXCygpYI2y_Z9jmT1-47" value="" style="endArrow=none;html=1;rounded=0;entryX=0.115;entryY=0.4;entryDx=0;entryDy=0;entryPerimeter=0;fontStyle=1" edge="1" parent="yKpZXCygpYI2y_Z9jmT1-49">
          <mxGeometry width="50" height="50" relative="1" as="geometry">
            <mxPoint as="sourcePoint" />
            <mxPoint x="20.34999999999991" y="20" as="targetPoint" />
          </mxGeometry>
        </mxCell>
        <mxCell id="yKpZXCygpYI2y_Z9jmT1-48" value="" style="endArrow=none;html=1;rounded=0;exitX=0.114;exitY=1.013;exitDx=0;exitDy=0;exitPerimeter=0;fontStyle=1" edge="1" parent="yKpZXCygpYI2y_Z9jmT1-49">
          <mxGeometry width="50" height="50" relative="1" as="geometry">
            <mxPoint x="19.6099999999999" y="50.64999999999998" as="sourcePoint" />
            <mxPoint x="20" y="20" as="targetPoint" />
          </mxGeometry>
        </mxCell>
        <mxCell id="yKpZXCygpYI2y_Z9jmT1-50" value="" style="group;fontStyle=1" vertex="1" connectable="0" parent="1">
          <mxGeometry x="-177" y="640" width="20.34999999999991" height="50.64999999999998" as="geometry" />
        </mxCell>
        <mxCell id="yKpZXCygpYI2y_Z9jmT1-51" value="" style="endArrow=none;html=1;rounded=0;entryX=0.115;entryY=0.4;entryDx=0;entryDy=0;entryPerimeter=0;fontStyle=1" edge="1" parent="yKpZXCygpYI2y_Z9jmT1-50">
          <mxGeometry width="50" height="50" relative="1" as="geometry">
            <mxPoint as="sourcePoint" />
            <mxPoint x="20.34999999999991" y="20" as="targetPoint" />
          </mxGeometry>
        </mxCell>
        <mxCell id="yKpZXCygpYI2y_Z9jmT1-52" value="" style="endArrow=none;html=1;rounded=0;exitX=0.114;exitY=1.013;exitDx=0;exitDy=0;exitPerimeter=0;fontStyle=1" edge="1" parent="yKpZXCygpYI2y_Z9jmT1-50">
          <mxGeometry width="50" height="50" relative="1" as="geometry">
            <mxPoint x="19.6099999999999" y="50.64999999999998" as="sourcePoint" />
            <mxPoint x="20" y="20" as="targetPoint" />
          </mxGeometry>
        </mxCell>
        <mxCell id="yKpZXCygpYI2y_Z9jmT1-53" value="" style="group;fontStyle=1" vertex="1" connectable="0" parent="1">
          <mxGeometry x="-102" y="640" width="20.34999999999991" height="50.64999999999998" as="geometry" />
        </mxCell>
        <mxCell id="yKpZXCygpYI2y_Z9jmT1-54" value="" style="endArrow=none;html=1;rounded=0;entryX=0.115;entryY=0.4;entryDx=0;entryDy=0;entryPerimeter=0;fontStyle=1" edge="1" parent="yKpZXCygpYI2y_Z9jmT1-53">
          <mxGeometry width="50" height="50" relative="1" as="geometry">
            <mxPoint as="sourcePoint" />
            <mxPoint x="20.34999999999991" y="20" as="targetPoint" />
          </mxGeometry>
        </mxCell>
        <mxCell id="yKpZXCygpYI2y_Z9jmT1-55" value="" style="endArrow=none;html=1;rounded=0;exitX=0.114;exitY=1.013;exitDx=0;exitDy=0;exitPerimeter=0;fontStyle=1" edge="1" parent="yKpZXCygpYI2y_Z9jmT1-53">
          <mxGeometry width="50" height="50" relative="1" as="geometry">
            <mxPoint x="19.6099999999999" y="50.64999999999998" as="sourcePoint" />
            <mxPoint x="20" y="20" as="targetPoint" />
          </mxGeometry>
        </mxCell>
        <mxCell id="yKpZXCygpYI2y_Z9jmT1-56" value="" style="group;fontStyle=1" vertex="1" connectable="0" parent="1">
          <mxGeometry x="-28" y="639.35" width="20.34999999999991" height="50.64999999999998" as="geometry" />
        </mxCell>
        <mxCell id="yKpZXCygpYI2y_Z9jmT1-57" value="" style="endArrow=none;html=1;rounded=0;entryX=0.115;entryY=0.4;entryDx=0;entryDy=0;entryPerimeter=0;fontStyle=1" edge="1" parent="yKpZXCygpYI2y_Z9jmT1-56">
          <mxGeometry width="50" height="50" relative="1" as="geometry">
            <mxPoint as="sourcePoint" />
            <mxPoint x="20.34999999999991" y="20" as="targetPoint" />
          </mxGeometry>
        </mxCell>
        <mxCell id="yKpZXCygpYI2y_Z9jmT1-58" value="" style="endArrow=none;html=1;rounded=0;exitX=0.114;exitY=1.013;exitDx=0;exitDy=0;exitPerimeter=0;fontStyle=1" edge="1" parent="yKpZXCygpYI2y_Z9jmT1-56">
          <mxGeometry width="50" height="50" relative="1" as="geometry">
            <mxPoint x="19.6099999999999" y="50.64999999999998" as="sourcePoint" />
            <mxPoint x="20" y="20" as="targetPoint" />
          </mxGeometry>
        </mxCell>
        <mxCell id="yKpZXCygpYI2y_Z9jmT1-59" value="" style="group;fontStyle=1" vertex="1" connectable="0" parent="1">
          <mxGeometry x="43.64999999999998" y="640" width="20.34999999999991" height="50.64999999999998" as="geometry" />
        </mxCell>
        <mxCell id="yKpZXCygpYI2y_Z9jmT1-60" value="" style="endArrow=none;html=1;rounded=0;entryX=0.115;entryY=0.4;entryDx=0;entryDy=0;entryPerimeter=0;fontStyle=1" edge="1" parent="yKpZXCygpYI2y_Z9jmT1-59">
          <mxGeometry width="50" height="50" relative="1" as="geometry">
            <mxPoint as="sourcePoint" />
            <mxPoint x="20.34999999999991" y="20" as="targetPoint" />
          </mxGeometry>
        </mxCell>
        <mxCell id="yKpZXCygpYI2y_Z9jmT1-61" value="" style="endArrow=none;html=1;rounded=0;exitX=0.114;exitY=1.013;exitDx=0;exitDy=0;exitPerimeter=0;fontStyle=1" edge="1" parent="yKpZXCygpYI2y_Z9jmT1-59">
          <mxGeometry width="50" height="50" relative="1" as="geometry">
            <mxPoint x="19.6099999999999" y="50.64999999999998" as="sourcePoint" />
            <mxPoint x="20" y="20" as="targetPoint" />
          </mxGeometry>
        </mxCell>
        <mxCell id="yKpZXCygpYI2y_Z9jmT1-62" value="" style="group;fontStyle=1" vertex="1" connectable="0" parent="1">
          <mxGeometry x="119" y="640" width="20.34999999999991" height="50.64999999999998" as="geometry" />
        </mxCell>
        <mxCell id="yKpZXCygpYI2y_Z9jmT1-63" value="" style="endArrow=none;html=1;rounded=0;entryX=0.115;entryY=0.4;entryDx=0;entryDy=0;entryPerimeter=0;fontStyle=1" edge="1" parent="yKpZXCygpYI2y_Z9jmT1-62">
          <mxGeometry width="50" height="50" relative="1" as="geometry">
            <mxPoint as="sourcePoint" />
            <mxPoint x="20.34999999999991" y="20" as="targetPoint" />
          </mxGeometry>
        </mxCell>
        <mxCell id="yKpZXCygpYI2y_Z9jmT1-64" value="" style="endArrow=none;html=1;rounded=0;exitX=0.114;exitY=1.013;exitDx=0;exitDy=0;exitPerimeter=0;fontStyle=1" edge="1" parent="yKpZXCygpYI2y_Z9jmT1-62">
          <mxGeometry width="50" height="50" relative="1" as="geometry">
            <mxPoint x="19.6099999999999" y="50.64999999999998" as="sourcePoint" />
            <mxPoint x="20" y="20" as="targetPoint" />
          </mxGeometry>
        </mxCell>
        <mxCell id="yKpZXCygpYI2y_Z9jmT1-65" value="" style="group;fontStyle=1" vertex="1" connectable="0" parent="1">
          <mxGeometry x="194.01999999999998" y="639.35" width="20.34999999999991" height="50.64999999999998" as="geometry" />
        </mxCell>
        <mxCell id="yKpZXCygpYI2y_Z9jmT1-66" value="" style="endArrow=none;html=1;rounded=0;entryX=0.115;entryY=0.4;entryDx=0;entryDy=0;entryPerimeter=0;fontStyle=1" edge="1" parent="yKpZXCygpYI2y_Z9jmT1-65">
          <mxGeometry width="50" height="50" relative="1" as="geometry">
            <mxPoint as="sourcePoint" />
            <mxPoint x="20.34999999999991" y="20" as="targetPoint" />
          </mxGeometry>
        </mxCell>
        <mxCell id="yKpZXCygpYI2y_Z9jmT1-67" value="" style="endArrow=none;html=1;rounded=0;exitX=0.114;exitY=1.013;exitDx=0;exitDy=0;exitPerimeter=0;fontStyle=1" edge="1" parent="yKpZXCygpYI2y_Z9jmT1-65">
          <mxGeometry width="50" height="50" relative="1" as="geometry">
            <mxPoint x="19.6099999999999" y="50.64999999999998" as="sourcePoint" />
            <mxPoint x="20" y="20" as="targetPoint" />
          </mxGeometry>
        </mxCell>
        <mxCell id="yKpZXCygpYI2y_Z9jmT1-68" value="" style="group;fontStyle=1" vertex="1" connectable="0" parent="1">
          <mxGeometry x="267.68000000000006" y="639.35" width="20.34999999999991" height="50.64999999999998" as="geometry" />
        </mxCell>
        <mxCell id="yKpZXCygpYI2y_Z9jmT1-69" value="" style="endArrow=none;html=1;rounded=0;entryX=0.115;entryY=0.4;entryDx=0;entryDy=0;entryPerimeter=0;fontStyle=1" edge="1" parent="yKpZXCygpYI2y_Z9jmT1-68">
          <mxGeometry width="50" height="50" relative="1" as="geometry">
            <mxPoint as="sourcePoint" />
            <mxPoint x="20.34999999999991" y="20" as="targetPoint" />
          </mxGeometry>
        </mxCell>
        <mxCell id="yKpZXCygpYI2y_Z9jmT1-70" value="" style="endArrow=none;html=1;rounded=0;exitX=0.114;exitY=1.013;exitDx=0;exitDy=0;exitPerimeter=0;fontStyle=1" edge="1" parent="yKpZXCygpYI2y_Z9jmT1-68">
          <mxGeometry width="50" height="50" relative="1" as="geometry">
            <mxPoint x="19.6099999999999" y="50.64999999999998" as="sourcePoint" />
            <mxPoint x="20" y="20" as="targetPoint" />
          </mxGeometry>
        </mxCell>
        <mxCell id="yKpZXCygpYI2y_Z9jmT1-71" value="" style="group;fontStyle=1" vertex="1" connectable="0" parent="1">
          <mxGeometry x="335" y="640" width="20.34999999999991" height="50.64999999999998" as="geometry" />
        </mxCell>
        <mxCell id="yKpZXCygpYI2y_Z9jmT1-72" value="" style="endArrow=none;html=1;rounded=0;entryX=0.115;entryY=0.4;entryDx=0;entryDy=0;entryPerimeter=0;fontStyle=1" edge="1" parent="yKpZXCygpYI2y_Z9jmT1-71">
          <mxGeometry width="50" height="50" relative="1" as="geometry">
            <mxPoint as="sourcePoint" />
            <mxPoint x="20.34999999999991" y="20" as="targetPoint" />
          </mxGeometry>
        </mxCell>
        <mxCell id="yKpZXCygpYI2y_Z9jmT1-73" value="" style="endArrow=none;html=1;rounded=0;exitX=0.114;exitY=1.013;exitDx=0;exitDy=0;exitPerimeter=0;fontStyle=1" edge="1" parent="yKpZXCygpYI2y_Z9jmT1-71">
          <mxGeometry width="50" height="50" relative="1" as="geometry">
            <mxPoint x="19.6099999999999" y="50.64999999999998" as="sourcePoint" />
            <mxPoint x="20" y="20" as="targetPoint" />
          </mxGeometry>
        </mxCell>
        <mxCell id="yKpZXCygpYI2y_Z9jmT1-74" value="" style="group;fontStyle=1" vertex="1" connectable="0" parent="1">
          <mxGeometry x="-490" y="650" width="120" height="30" as="geometry" />
        </mxCell>
        <mxCell id="yKpZXCygpYI2y_Z9jmT1-75" value="" style="rounded=1;whiteSpace=wrap;html=1;fillColor=#595900;fontStyle=1" vertex="1" parent="yKpZXCygpYI2y_Z9jmT1-74">
          <mxGeometry width="120" height="30" as="geometry" />
        </mxCell>
        <mxCell id="yKpZXCygpYI2y_Z9jmT1-76" value="&lt;font color=&quot;#fcfcfc&quot; style=&quot;font-size: 19px;&quot;&gt;SysCalls&lt;/font&gt;" style="text;html=1;align=center;verticalAlign=middle;whiteSpace=wrap;rounded=0;fontSize=19;fontStyle=1" vertex="1" parent="yKpZXCygpYI2y_Z9jmT1-74">
          <mxGeometry x="9.6" y="7.639999999999999" width="110.39999999999999" height="14.725" as="geometry" />
        </mxCell>
        <mxCell id="yKpZXCygpYI2y_Z9jmT1-78" value="open" style="text;html=1;align=center;verticalAlign=middle;whiteSpace=wrap;rounded=0;fontSize=13;fontStyle=1" vertex="1" parent="1">
          <mxGeometry x="-290" y="660.55" width="52.35" height="29.45" as="geometry" />
        </mxCell>
        <mxCell id="yKpZXCygpYI2y_Z9jmT1-79" value="creat" style="text;html=1;align=center;verticalAlign=middle;whiteSpace=wrap;rounded=0;fontSize=13;fontStyle=1" vertex="1" parent="1">
          <mxGeometry x="-217.35000000000002" y="661.2" width="52.35" height="29.45" as="geometry" />
        </mxCell>
        <mxCell id="yKpZXCygpYI2y_Z9jmT1-80" value="read" style="text;html=1;align=center;verticalAlign=middle;whiteSpace=wrap;rounded=0;fontSize=13;fontStyle=1" vertex="1" parent="1">
          <mxGeometry x="-150" y="660.55" width="52.35" height="29.45" as="geometry" />
        </mxCell>
        <mxCell id="yKpZXCygpYI2y_Z9jmT1-81" value="write" style="text;html=1;align=center;verticalAlign=middle;whiteSpace=wrap;rounded=0;fontSize=13;fontStyle=1" vertex="1" parent="1">
          <mxGeometry x="-70" y="660.55" width="52.35" height="29.45" as="geometry" />
        </mxCell>
        <mxCell id="yKpZXCygpYI2y_Z9jmT1-82" value="close" style="text;html=1;align=center;verticalAlign=middle;whiteSpace=wrap;rounded=0;fontSize=13;fontStyle=1" vertex="1" parent="1">
          <mxGeometry x="-3.669999999999959" y="660.55" width="52.35" height="29.45" as="geometry" />
        </mxCell>
        <mxCell id="yKpZXCygpYI2y_Z9jmT1-83" value="dup" style="text;html=1;align=center;verticalAlign=middle;whiteSpace=wrap;rounded=0;fontSize=13;fontStyle=1" vertex="1" parent="1">
          <mxGeometry x="75.5" y="660.55" width="52.35" height="29.45" as="geometry" />
        </mxCell>
        <mxCell id="yKpZXCygpYI2y_Z9jmT1-84" value="fork" style="text;html=1;align=center;verticalAlign=middle;whiteSpace=wrap;rounded=0;fontSize=13;fontStyle=1" vertex="1" parent="1">
          <mxGeometry x="150" y="660.55" width="52.35" height="29.45" as="geometry" />
        </mxCell>
        <mxCell id="yKpZXCygpYI2y_Z9jmT1-85" value="exec" style="text;html=1;align=center;verticalAlign=middle;whiteSpace=wrap;rounded=0;fontSize=13;fontStyle=1" vertex="1" parent="1">
          <mxGeometry x="215.32999999999993" y="661.2" width="52.35" height="29.45" as="geometry" />
        </mxCell>
        <mxCell id="yKpZXCygpYI2y_Z9jmT1-86" value="chown" style="text;html=1;align=center;verticalAlign=middle;whiteSpace=wrap;rounded=0;fontSize=13;fontStyle=1" vertex="1" parent="1">
          <mxGeometry x="290" y="660.55" width="52.35" height="29.45" as="geometry" />
        </mxCell>
        <mxCell id="yKpZXCygpYI2y_Z9jmT1-87" value="chmod" style="text;html=1;align=center;verticalAlign=middle;whiteSpace=wrap;rounded=0;fontSize=13;fontStyle=1" vertex="1" parent="1">
          <mxGeometry x="368.30999999999995" y="661.2" width="52.35" height="29.45" as="geometry" />
        </mxCell>
        <mxCell id="yKpZXCygpYI2y_Z9jmT1-88" value="" style="shape=cube;whiteSpace=wrap;html=1;boundedLbl=1;backgroundOutline=1;darkOpacity=0.05;darkOpacity2=0.1;fontStyle=1" vertex="1" parent="1">
          <mxGeometry x="-314.75" y="540.55" width="740" height="120" as="geometry" />
        </mxCell>
        <mxCell id="yKpZXCygpYI2y_Z9jmT1-89" value="" style="group;fontStyle=1" vertex="1" connectable="0" parent="1">
          <mxGeometry x="-490" y="570" width="120" height="50" as="geometry" />
        </mxCell>
        <mxCell id="yKpZXCygpYI2y_Z9jmT1-90" value="" style="rounded=1;whiteSpace=wrap;html=1;fillColor=#595900;fontStyle=1" vertex="1" parent="yKpZXCygpYI2y_Z9jmT1-89">
          <mxGeometry width="120" height="50" as="geometry" />
        </mxCell>
        <mxCell id="yKpZXCygpYI2y_Z9jmT1-91" value="&lt;font color=&quot;#fcfcfc&quot; style=&quot;font-size: 19px;&quot;&gt;Programs&lt;/font&gt;" style="text;html=1;align=center;verticalAlign=middle;whiteSpace=wrap;rounded=0;fontSize=19;fontStyle=1" vertex="1" parent="yKpZXCygpYI2y_Z9jmT1-89">
          <mxGeometry x="9.6" y="12.733333333333333" width="110.39999999999999" height="24.541666666666668" as="geometry" />
        </mxCell>
        <mxCell id="yKpZXCygpYI2y_Z9jmT1-100" value="" style="group;fontStyle=1" vertex="1" connectable="0" parent="1">
          <mxGeometry x="-257.5" y="580" width="42.349999999999994" height="60" as="geometry" />
        </mxCell>
        <mxCell id="yKpZXCygpYI2y_Z9jmT1-98" value="" style="html=1;verticalLabelPosition=bottom;align=center;labelBackgroundColor=#ffffff;verticalAlign=top;strokeWidth=2;strokeColor=#0080F0;shadow=0;dashed=0;shape=mxgraph.ios7.icons.document;fontStyle=1" vertex="1" parent="yKpZXCygpYI2y_Z9jmT1-100">
          <mxGeometry width="42.35" height="60" as="geometry" />
        </mxCell>
        <mxCell id="yKpZXCygpYI2y_Z9jmT1-99" value="" style="sketch=0;html=1;aspect=fixed;strokeColor=none;shadow=0;fillColor=#3B8DF1;verticalAlign=top;labelPosition=center;verticalLabelPosition=bottom;shape=mxgraph.gcp2.gear;fontStyle=1" vertex="1" parent="yKpZXCygpYI2y_Z9jmT1-100">
          <mxGeometry x="6.170000000000002" y="15" width="30" height="30" as="geometry" />
        </mxCell>
        <mxCell id="yKpZXCygpYI2y_Z9jmT1-101" value="" style="group;fontStyle=1" vertex="1" connectable="0" parent="1">
          <mxGeometry x="-156.64999999999998" y="580" width="42.349999999999994" height="60" as="geometry" />
        </mxCell>
        <mxCell id="yKpZXCygpYI2y_Z9jmT1-102" value="" style="html=1;verticalLabelPosition=bottom;align=center;labelBackgroundColor=#ffffff;verticalAlign=top;strokeWidth=2;strokeColor=#0080F0;shadow=0;dashed=0;shape=mxgraph.ios7.icons.document;fontStyle=1" vertex="1" parent="yKpZXCygpYI2y_Z9jmT1-101">
          <mxGeometry width="42.35" height="60" as="geometry" />
        </mxCell>
        <mxCell id="yKpZXCygpYI2y_Z9jmT1-103" value="" style="sketch=0;html=1;aspect=fixed;strokeColor=none;shadow=0;fillColor=#3B8DF1;verticalAlign=top;labelPosition=center;verticalLabelPosition=bottom;shape=mxgraph.gcp2.gear;fontStyle=1" vertex="1" parent="yKpZXCygpYI2y_Z9jmT1-101">
          <mxGeometry x="6.170000000000002" y="15" width="30" height="30" as="geometry" />
        </mxCell>
        <mxCell id="yKpZXCygpYI2y_Z9jmT1-104" value="" style="group;fontStyle=1" vertex="1" connectable="0" parent="1">
          <mxGeometry x="-46.02000000000004" y="580" width="42.349999999999994" height="60" as="geometry" />
        </mxCell>
        <mxCell id="yKpZXCygpYI2y_Z9jmT1-105" value="" style="html=1;verticalLabelPosition=bottom;align=center;labelBackgroundColor=#ffffff;verticalAlign=top;strokeWidth=2;strokeColor=#0080F0;shadow=0;dashed=0;shape=mxgraph.ios7.icons.document;fontStyle=1" vertex="1" parent="yKpZXCygpYI2y_Z9jmT1-104">
          <mxGeometry width="42.35" height="60" as="geometry" />
        </mxCell>
        <mxCell id="yKpZXCygpYI2y_Z9jmT1-106" value="" style="sketch=0;html=1;aspect=fixed;strokeColor=none;shadow=0;fillColor=#3B8DF1;verticalAlign=top;labelPosition=center;verticalLabelPosition=bottom;shape=mxgraph.gcp2.gear;fontStyle=1" vertex="1" parent="yKpZXCygpYI2y_Z9jmT1-104">
          <mxGeometry x="6.170000000000002" y="15" width="30" height="30" as="geometry" />
        </mxCell>
        <mxCell id="yKpZXCygpYI2y_Z9jmT1-107" value="" style="group;fontStyle=1" vertex="1" connectable="0" parent="1">
          <mxGeometry x="55" y="579.35" width="42.349999999999994" height="60" as="geometry" />
        </mxCell>
        <mxCell id="yKpZXCygpYI2y_Z9jmT1-108" value="" style="html=1;verticalLabelPosition=bottom;align=center;labelBackgroundColor=#ffffff;verticalAlign=top;strokeWidth=2;strokeColor=#0080F0;shadow=0;dashed=0;shape=mxgraph.ios7.icons.document;fontStyle=1" vertex="1" parent="yKpZXCygpYI2y_Z9jmT1-107">
          <mxGeometry width="42.35" height="60" as="geometry" />
        </mxCell>
        <mxCell id="yKpZXCygpYI2y_Z9jmT1-109" value="" style="sketch=0;html=1;aspect=fixed;strokeColor=none;shadow=0;fillColor=#3B8DF1;verticalAlign=top;labelPosition=center;verticalLabelPosition=bottom;shape=mxgraph.gcp2.gear;fontStyle=1" vertex="1" parent="yKpZXCygpYI2y_Z9jmT1-107">
          <mxGeometry x="6.170000000000002" y="15" width="30" height="30" as="geometry" />
        </mxCell>
        <mxCell id="yKpZXCygpYI2y_Z9jmT1-110" value="" style="group;fontStyle=1" vertex="1" connectable="0" parent="1">
          <mxGeometry x="155" y="579.35" width="42.349999999999994" height="60" as="geometry" />
        </mxCell>
        <mxCell id="yKpZXCygpYI2y_Z9jmT1-111" value="" style="html=1;verticalLabelPosition=bottom;align=center;labelBackgroundColor=#ffffff;verticalAlign=top;strokeWidth=2;strokeColor=#0080F0;shadow=0;dashed=0;shape=mxgraph.ios7.icons.document;fontStyle=1" vertex="1" parent="yKpZXCygpYI2y_Z9jmT1-110">
          <mxGeometry width="42.35" height="60" as="geometry" />
        </mxCell>
        <mxCell id="yKpZXCygpYI2y_Z9jmT1-112" value="" style="sketch=0;html=1;aspect=fixed;strokeColor=none;shadow=0;fillColor=#3B8DF1;verticalAlign=top;labelPosition=center;verticalLabelPosition=bottom;shape=mxgraph.gcp2.gear;fontStyle=1" vertex="1" parent="yKpZXCygpYI2y_Z9jmT1-110">
          <mxGeometry x="6.170000000000002" y="15" width="30" height="30" as="geometry" />
        </mxCell>
        <mxCell id="yKpZXCygpYI2y_Z9jmT1-113" value="" style="group;fontStyle=1" vertex="1" connectable="0" parent="1">
          <mxGeometry x="252.37" y="580" width="42.349999999999994" height="60" as="geometry" />
        </mxCell>
        <mxCell id="yKpZXCygpYI2y_Z9jmT1-114" value="" style="html=1;verticalLabelPosition=bottom;align=center;labelBackgroundColor=#ffffff;verticalAlign=top;strokeWidth=2;strokeColor=#0080F0;shadow=0;dashed=0;shape=mxgraph.ios7.icons.document;fontStyle=1" vertex="1" parent="yKpZXCygpYI2y_Z9jmT1-113">
          <mxGeometry width="42.35" height="60" as="geometry" />
        </mxCell>
        <mxCell id="yKpZXCygpYI2y_Z9jmT1-115" value="" style="sketch=0;html=1;aspect=fixed;strokeColor=none;shadow=0;fillColor=#3B8DF1;verticalAlign=top;labelPosition=center;verticalLabelPosition=bottom;shape=mxgraph.gcp2.gear;fontStyle=1" vertex="1" parent="yKpZXCygpYI2y_Z9jmT1-113">
          <mxGeometry x="6.170000000000002" y="15" width="30" height="30" as="geometry" />
        </mxCell>
        <mxCell id="yKpZXCygpYI2y_Z9jmT1-116" value="" style="group;fontStyle=1" vertex="1" connectable="0" parent="1">
          <mxGeometry x="347" y="580" width="42.349999999999994" height="60" as="geometry" />
        </mxCell>
        <mxCell id="yKpZXCygpYI2y_Z9jmT1-117" value="" style="html=1;verticalLabelPosition=bottom;align=center;labelBackgroundColor=#ffffff;verticalAlign=top;strokeWidth=2;strokeColor=#0080F0;shadow=0;dashed=0;shape=mxgraph.ios7.icons.document;fontStyle=1" vertex="1" parent="yKpZXCygpYI2y_Z9jmT1-116">
          <mxGeometry width="42.35" height="60" as="geometry" />
        </mxCell>
        <mxCell id="yKpZXCygpYI2y_Z9jmT1-118" value="" style="sketch=0;html=1;aspect=fixed;strokeColor=none;shadow=0;fillColor=#3B8DF1;verticalAlign=top;labelPosition=center;verticalLabelPosition=bottom;shape=mxgraph.gcp2.gear;fontStyle=1" vertex="1" parent="yKpZXCygpYI2y_Z9jmT1-116">
          <mxGeometry x="6.170000000000002" y="15" width="30" height="30" as="geometry" />
        </mxCell>
        <mxCell id="yKpZXCygpYI2y_Z9jmT1-121" value="ls" style="text;html=1;align=center;verticalAlign=middle;whiteSpace=wrap;rounded=0;fontSize=13;fontStyle=1" vertex="1" parent="1">
          <mxGeometry x="-278.83" y="640" width="85" height="21.2" as="geometry" />
        </mxCell>
        <mxCell id="yKpZXCygpYI2y_Z9jmT1-122" value="cp" style="text;html=1;align=center;verticalAlign=middle;whiteSpace=wrap;rounded=0;fontSize=13;fontStyle=1" vertex="1" parent="1">
          <mxGeometry x="-177.98000000000002" y="639.35" width="85" height="21.2" as="geometry" />
        </mxCell>
        <mxCell id="yKpZXCygpYI2y_Z9jmT1-123" value="mv" style="text;html=1;align=center;verticalAlign=middle;whiteSpace=wrap;rounded=0;fontSize=13;fontStyle=1" vertex="1" parent="1">
          <mxGeometry x="-70" y="640" width="85" height="21.2" as="geometry" />
        </mxCell>
        <mxCell id="yKpZXCygpYI2y_Z9jmT1-124" value="rm" style="text;html=1;align=center;verticalAlign=middle;whiteSpace=wrap;rounded=0;fontSize=13;fontStyle=1" vertex="1" parent="1">
          <mxGeometry x="32.75" y="640" width="85" height="21.2" as="geometry" />
        </mxCell>
        <mxCell id="yKpZXCygpYI2y_Z9jmT1-125" value="cat" style="text;html=1;align=center;verticalAlign=middle;whiteSpace=wrap;rounded=0;fontSize=13;fontStyle=1" vertex="1" parent="1">
          <mxGeometry x="133.67000000000002" y="639.35" width="85" height="21.2" as="geometry" />
        </mxCell>
        <mxCell id="yKpZXCygpYI2y_Z9jmT1-126" value="grep" style="text;html=1;align=center;verticalAlign=middle;whiteSpace=wrap;rounded=0;fontSize=13;fontStyle=1" vertex="1" parent="1">
          <mxGeometry x="226.18000000000006" y="639.35" width="85" height="21.2" as="geometry" />
        </mxCell>
        <mxCell id="yKpZXCygpYI2y_Z9jmT1-127" value="find" style="text;html=1;align=center;verticalAlign=middle;whiteSpace=wrap;rounded=0;fontSize=13;fontStyle=1" vertex="1" parent="1">
          <mxGeometry x="326.5" y="640" width="85" height="21.2" as="geometry" />
        </mxCell>
        <mxCell id="yKpZXCygpYI2y_Z9jmT1-138" value="sh" style="text;html=1;align=center;verticalAlign=middle;whiteSpace=wrap;rounded=0;fontSize=13;fontStyle=1" vertex="1" parent="1">
          <mxGeometry x="-271.49" y="530" width="70.33" height="20" as="geometry" />
        </mxCell>
        <mxCell id="yKpZXCygpYI2y_Z9jmT1-139" value="bash" style="text;html=1;align=center;verticalAlign=middle;whiteSpace=wrap;rounded=0;fontSize=13;fontStyle=1" vertex="1" parent="1">
          <mxGeometry x="-179.32999999999998" y="530" width="70.33" height="20" as="geometry" />
        </mxCell>
        <mxCell id="yKpZXCygpYI2y_Z9jmT1-140" value="zsh" style="text;html=1;align=center;verticalAlign=middle;whiteSpace=wrap;rounded=0;fontSize=13;fontStyle=1" vertex="1" parent="1">
          <mxGeometry x="-77.57999999999998" y="530" width="70.33" height="20" as="geometry" />
        </mxCell>
        <mxCell id="yKpZXCygpYI2y_Z9jmT1-141" value="fish" style="text;html=1;align=center;verticalAlign=middle;whiteSpace=wrap;rounded=0;fontSize=13;fontStyle=1" vertex="1" parent="1">
          <mxGeometry x="13.839999999999975" y="530" width="70.33" height="20" as="geometry" />
        </mxCell>
        <mxCell id="yKpZXCygpYI2y_Z9jmT1-142" value="" style="group;fontStyle=1" vertex="1" connectable="0" parent="1">
          <mxGeometry x="-490" y="475" width="180" height="75" as="geometry" />
        </mxCell>
        <mxCell id="yKpZXCygpYI2y_Z9jmT1-143" value="" style="rounded=1;whiteSpace=wrap;html=1;fillColor=#595900;fontStyle=1" vertex="1" parent="yKpZXCygpYI2y_Z9jmT1-142">
          <mxGeometry width="120" height="50" as="geometry" />
        </mxCell>
        <mxCell id="yKpZXCygpYI2y_Z9jmT1-144" value="&lt;font color=&quot;#fcfcfc&quot; style=&quot;font-size: 19px;&quot;&gt;Shell&lt;/font&gt;" style="text;html=1;align=center;verticalAlign=middle;whiteSpace=wrap;rounded=0;fontSize=19;fontStyle=1" vertex="1" parent="yKpZXCygpYI2y_Z9jmT1-142">
          <mxGeometry x="9.6" y="12.733333333333333" width="110.39999999999999" height="24.541666666666668" as="geometry" />
        </mxCell>
        <mxCell id="yKpZXCygpYI2y_Z9jmT1-147" value="" style="shape=cube;whiteSpace=wrap;html=1;boundedLbl=1;backgroundOutline=1;darkOpacity=0.05;darkOpacity2=0.1;fontStyle=1" vertex="1" parent="1">
          <mxGeometry x="-314.75" y="440" width="740" height="120" as="geometry" />
        </mxCell>
        <mxCell id="yKpZXCygpYI2y_Z9jmT1-155" value="" style="group;fontStyle=1" vertex="1" connectable="0" parent="1">
          <mxGeometry x="80" y="440" width="20.34999999999991" height="50.64999999999998" as="geometry" />
        </mxCell>
        <mxCell id="yKpZXCygpYI2y_Z9jmT1-156" value="" style="endArrow=none;html=1;rounded=0;entryX=0.115;entryY=0.4;entryDx=0;entryDy=0;entryPerimeter=0;fontStyle=1" edge="1" parent="yKpZXCygpYI2y_Z9jmT1-155">
          <mxGeometry width="50" height="50" relative="1" as="geometry">
            <mxPoint as="sourcePoint" />
            <mxPoint x="20.34999999999991" y="20" as="targetPoint" />
          </mxGeometry>
        </mxCell>
        <mxCell id="yKpZXCygpYI2y_Z9jmT1-157" value="" style="endArrow=none;html=1;rounded=0;exitX=0.561;exitY=0.997;exitDx=0;exitDy=0;exitPerimeter=0;fontStyle=1" edge="1" parent="yKpZXCygpYI2y_Z9jmT1-155" source="yKpZXCygpYI2y_Z9jmT1-147">
          <mxGeometry width="50" height="50" relative="1" as="geometry">
            <mxPoint x="19.6099999999999" y="50.64999999999998" as="sourcePoint" />
            <mxPoint x="20" y="20" as="targetPoint" />
          </mxGeometry>
        </mxCell>
        <mxCell id="yKpZXCygpYI2y_Z9jmT1-158" value="" style="shape=cube;whiteSpace=wrap;html=1;boundedLbl=1;backgroundOutline=1;darkOpacity=0.05;darkOpacity2=0.1;" vertex="1" parent="1">
          <mxGeometry x="171.22000000000003" y="470" width="155.28" height="80" as="geometry" />
        </mxCell>
        <mxCell id="yKpZXCygpYI2y_Z9jmT1-146" value="" style="image;aspect=fixed;perimeter=ellipsePerimeter;html=1;align=center;shadow=0;dashed=0;spacingTop=3;image=img/lib/active_directory/windows_router.svg;" vertex="1" parent="1">
          <mxGeometry x="202.35000000000002" y="499.9" width="32.52" height="40.65" as="geometry" />
        </mxCell>
        <mxCell id="yKpZXCygpYI2y_Z9jmT1-162" value="X-Windows" style="text;html=1;align=center;verticalAlign=middle;whiteSpace=wrap;rounded=0;fontSize=13;fontStyle=1" vertex="1" parent="1">
          <mxGeometry x="241.5" y="508.8" width="85" height="21.2" as="geometry" />
        </mxCell>
        <mxCell id="yKpZXCygpYI2y_Z9jmT1-163" value="" style="group;fontStyle=1" vertex="1" connectable="0" parent="1">
          <mxGeometry x="460" y="470" width="210" height="80" as="geometry" />
        </mxCell>
        <mxCell id="yKpZXCygpYI2y_Z9jmT1-164" value="" style="rounded=1;whiteSpace=wrap;html=1;fillColor=#595900;fontStyle=1" vertex="1" parent="yKpZXCygpYI2y_Z9jmT1-163">
          <mxGeometry width="140" height="53.333333333333336" as="geometry" />
        </mxCell>
        <mxCell id="yKpZXCygpYI2y_Z9jmT1-165" value="&lt;font color=&quot;#fcfcfc&quot; style=&quot;font-size: 19px;&quot;&gt;X-Windows&lt;/font&gt;" style="text;html=1;align=center;verticalAlign=middle;whiteSpace=wrap;rounded=0;fontSize=19;fontStyle=1" vertex="1" parent="yKpZXCygpYI2y_Z9jmT1-163">
          <mxGeometry x="11.200000000000001" y="13.58222222222222" width="128.8" height="26.177777777777777" as="geometry" />
        </mxCell>
        <mxCell id="yKpZXCygpYI2y_Z9jmT1-168" value="" style="shape=cube;whiteSpace=wrap;html=1;boundedLbl=1;backgroundOutline=1;darkOpacity=0.05;darkOpacity2=0.1;fontStyle=1" vertex="1" parent="1">
          <mxGeometry x="80" y="340" width="345.25" height="120" as="geometry" />
        </mxCell>
        <mxCell id="yKpZXCygpYI2y_Z9jmT1-169" value="" style="group;fontStyle=1" vertex="1" connectable="0" parent="1">
          <mxGeometry x="240" y="340" width="20.34999999999991" height="50.64999999999998" as="geometry" />
        </mxCell>
        <mxCell id="yKpZXCygpYI2y_Z9jmT1-170" value="" style="endArrow=none;html=1;rounded=0;entryX=0.115;entryY=0.4;entryDx=0;entryDy=0;entryPerimeter=0;fontStyle=1" edge="1" parent="yKpZXCygpYI2y_Z9jmT1-169">
          <mxGeometry width="50" height="50" relative="1" as="geometry">
            <mxPoint as="sourcePoint" />
            <mxPoint x="20.34999999999991" y="20" as="targetPoint" />
          </mxGeometry>
        </mxCell>
        <mxCell id="yKpZXCygpYI2y_Z9jmT1-171" value="" style="endArrow=none;html=1;rounded=0;fontStyle=1" edge="1" parent="yKpZXCygpYI2y_Z9jmT1-169">
          <mxGeometry width="50" height="50" relative="1" as="geometry">
            <mxPoint x="20" y="120" as="sourcePoint" />
            <mxPoint x="20" y="20" as="targetPoint" />
          </mxGeometry>
        </mxCell>
        <mxCell id="yKpZXCygpYI2y_Z9jmT1-172" value="" style="shape=image;html=1;verticalAlign=top;verticalLabelPosition=bottom;labelBackgroundColor=#ffffff;imageAspect=0;aspect=fixed;image=https://cdn3.iconfinder.com/data/icons/snowish/128x128/apps/gnome-terminal.png" vertex="1" parent="1">
          <mxGeometry x="-270.91999999999996" y="476.91" width="66.18" height="66.18" as="geometry" />
        </mxCell>
        <mxCell id="yKpZXCygpYI2y_Z9jmT1-173" value="" style="shape=image;html=1;verticalAlign=top;verticalLabelPosition=bottom;labelBackgroundColor=#ffffff;imageAspect=0;aspect=fixed;image=https://cdn3.iconfinder.com/data/icons/snowish/128x128/apps/gnome-terminal.png" vertex="1" parent="1">
          <mxGeometry x="-179.32999999999998" y="476.90999999999997" width="66.18" height="66.18" as="geometry" />
        </mxCell>
        <mxCell id="yKpZXCygpYI2y_Z9jmT1-174" value="" style="shape=image;html=1;verticalAlign=top;verticalLabelPosition=bottom;labelBackgroundColor=#ffffff;imageAspect=0;aspect=fixed;image=https://cdn3.iconfinder.com/data/icons/snowish/128x128/apps/gnome-terminal.png" vertex="1" parent="1">
          <mxGeometry x="-83.82999999999998" y="476.91" width="66.18" height="66.18" as="geometry" />
        </mxCell>
        <mxCell id="yKpZXCygpYI2y_Z9jmT1-175" value="" style="shape=image;html=1;verticalAlign=top;verticalLabelPosition=bottom;labelBackgroundColor=#ffffff;imageAspect=0;aspect=fixed;image=https://cdn3.iconfinder.com/data/icons/snowish/128x128/apps/gnome-terminal.png" vertex="1" parent="1">
          <mxGeometry x="10.000000000000028" y="474.37" width="66.18" height="66.18" as="geometry" />
        </mxCell>
        <mxCell id="yKpZXCygpYI2y_Z9jmT1-176" value="sh" style="text;html=1;align=center;verticalAlign=middle;whiteSpace=wrap;rounded=0;fontSize=13;fontStyle=1" vertex="1" parent="1">
          <mxGeometry x="-278.82" y="538.8" width="85" height="21.2" as="geometry" />
        </mxCell>
        <mxCell id="yKpZXCygpYI2y_Z9jmT1-177" value="bash" style="text;html=1;align=center;verticalAlign=middle;whiteSpace=wrap;rounded=0;fontSize=13;fontStyle=1" vertex="1" parent="1">
          <mxGeometry x="-186.66999999999996" y="538.8" width="85" height="21.2" as="geometry" />
        </mxCell>
        <mxCell id="yKpZXCygpYI2y_Z9jmT1-178" value="zsh" style="text;html=1;align=center;verticalAlign=middle;whiteSpace=wrap;rounded=0;fontSize=13;fontStyle=1" vertex="1" parent="1">
          <mxGeometry x="-93.24000000000001" y="538.8" width="85" height="21.2" as="geometry" />
        </mxCell>
        <mxCell id="yKpZXCygpYI2y_Z9jmT1-179" value="fish" style="text;html=1;align=center;verticalAlign=middle;whiteSpace=wrap;rounded=0;fontSize=13;fontStyle=1" vertex="1" parent="1">
          <mxGeometry x="0.5900000000000034" y="538.8" width="85" height="21.2" as="geometry" />
        </mxCell>
        <mxCell id="yKpZXCygpYI2y_Z9jmT1-186" value="GNOME" style="text;html=1;align=center;verticalAlign=middle;whiteSpace=wrap;rounded=0;fontSize=13;fontStyle=1" vertex="1" parent="1">
          <mxGeometry x="138.68" y="430" width="85" height="21.2" as="geometry" />
        </mxCell>
        <mxCell id="yKpZXCygpYI2y_Z9jmT1-187" value="" style="group" vertex="1" connectable="0" parent="1">
          <mxGeometry x="148.66" y="368.8" width="61.34" height="61.2" as="geometry" />
        </mxCell>
        <mxCell id="yKpZXCygpYI2y_Z9jmT1-184" value="" style="ellipse;whiteSpace=wrap;html=1;aspect=fixed;fillColor=#000000;" vertex="1" parent="yKpZXCygpYI2y_Z9jmT1-187">
          <mxGeometry width="61.2" height="61.2" as="geometry" />
        </mxCell>
        <mxCell id="yKpZXCygpYI2y_Z9jmT1-181" value="" style="shape=image;html=1;verticalAlign=top;verticalLabelPosition=bottom;labelBackgroundColor=#ffffff;imageAspect=0;aspect=fixed;image=https://cdn0.iconfinder.com/data/icons/iconsweets2/40/foot_foot_step.png;imageBorder=none;" vertex="1" parent="yKpZXCygpYI2y_Z9jmT1-187">
          <mxGeometry x="6.686130889353469" y="5.741672727272755" width="49.72778181818182" height="49.72778181818182" as="geometry" />
        </mxCell>
        <mxCell id="yKpZXCygpYI2y_Z9jmT1-188" value="" style="shape=image;html=1;verticalAlign=top;verticalLabelPosition=bottom;labelBackgroundColor=#ffffff;imageAspect=0;aspect=fixed;image=https://cdn2.iconfinder.com/data/icons/crystalproject/128x128/apps/go_kde.png" vertex="1" parent="1">
          <mxGeometry x="311.17999999999995" y="369.40000000000003" width="61.2" height="61.2" as="geometry" />
        </mxCell>
        <mxCell id="yKpZXCygpYI2y_Z9jmT1-189" value="KDE" style="text;html=1;align=center;verticalAlign=middle;whiteSpace=wrap;rounded=0;fontSize=13;fontStyle=1" vertex="1" parent="1">
          <mxGeometry x="297.5" y="430.6" width="85" height="21.2" as="geometry" />
        </mxCell>
        <mxCell id="yKpZXCygpYI2y_Z9jmT1-192" value="" style="group;fontStyle=1" vertex="1" connectable="0" parent="1">
          <mxGeometry x="460" y="360" width="210" height="80" as="geometry" />
        </mxCell>
        <mxCell id="yKpZXCygpYI2y_Z9jmT1-193" value="" style="rounded=1;whiteSpace=wrap;html=1;fillColor=#595900;fontStyle=1" vertex="1" parent="yKpZXCygpYI2y_Z9jmT1-192">
          <mxGeometry width="140" height="53.333333333333336" as="geometry" />
        </mxCell>
        <mxCell id="yKpZXCygpYI2y_Z9jmT1-194" value="&lt;font color=&quot;#fcfcfc&quot; style=&quot;font-size: 19px;&quot;&gt;Desktops&lt;/font&gt;" style="text;html=1;align=center;verticalAlign=middle;whiteSpace=wrap;rounded=0;fontSize=19;fontStyle=1" vertex="1" parent="yKpZXCygpYI2y_Z9jmT1-192">
          <mxGeometry x="11.200000000000001" y="13.58222222222222" width="128.8" height="26.177777777777777" as="geometry" />
        </mxCell>
        <mxCell id="yKpZXCygpYI2y_Z9jmT1-199" style="edgeStyle=orthogonalEdgeStyle;rounded=0;orthogonalLoop=1;jettySize=auto;html=1;" edge="1" parent="1" source="yKpZXCygpYI2y_Z9jmT1-198">
          <mxGeometry relative="1" as="geometry">
            <mxPoint x="270" y="210" as="targetPoint" />
          </mxGeometry>
        </mxCell>
        <mxCell id="yKpZXCygpYI2y_Z9jmT1-200" style="edgeStyle=orthogonalEdgeStyle;rounded=0;orthogonalLoop=1;jettySize=auto;html=1;" edge="1" parent="1" source="yKpZXCygpYI2y_Z9jmT1-198">
          <mxGeometry relative="1" as="geometry">
            <mxPoint x="-210" y="300" as="targetPoint" />
          </mxGeometry>
        </mxCell>
        <mxCell id="yKpZXCygpYI2y_Z9jmT1-198" value="Users" style="sketch=0;outlineConnect=0;fontColor=#232F3E;gradientColor=none;strokeColor=#232F3E;fillColor=#ffffff;dashed=0;verticalLabelPosition=bottom;verticalAlign=top;align=center;html=1;fontSize=12;fontStyle=0;aspect=fixed;shape=mxgraph.aws4.resourceIcon;resIcon=mxgraph.aws4.users;" vertex="1" parent="1">
          <mxGeometry x="-83.82999999999998" y="70" width="122" height="122" as="geometry" />
        </mxCell>
        <mxCell id="yKpZXCygpYI2y_Z9jmT1-201" value="" style="image;sketch=0;aspect=fixed;html=1;points=[];align=center;fontSize=12;image=img/lib/mscae/VM_Linux_Non_Azure.svg;" vertex="1" parent="1">
          <mxGeometry x="215.5" y="220" width="124.72" height="114.74" as="geometry" />
        </mxCell>
        <mxCell id="yKpZXCygpYI2y_Z9jmT1-203" value="" style="shape=image;html=1;verticalAlign=top;verticalLabelPosition=bottom;labelBackgroundColor=#ffffff;imageAspect=0;aspect=fixed;image=https://cdn3.iconfinder.com/data/icons/snowish/128x128/apps/gnome-terminal.png" vertex="1" parent="1">
          <mxGeometry x="-283" y="287" width="153" height="153" as="geometry" />
        </mxCell>
        <mxCell id="yKpZXCygpYI2y_Z9jmT1-208" value="" style="group;fontStyle=1" vertex="1" connectable="0" parent="1">
          <mxGeometry x="-480" y="320" width="180" height="75" as="geometry" />
        </mxCell>
        <mxCell id="yKpZXCygpYI2y_Z9jmT1-209" value="" style="rounded=1;whiteSpace=wrap;html=1;fillColor=#595900;fontStyle=1" vertex="1" parent="yKpZXCygpYI2y_Z9jmT1-208">
          <mxGeometry width="120" height="50" as="geometry" />
        </mxCell>
        <mxCell id="yKpZXCygpYI2y_Z9jmT1-210" value="&lt;font color=&quot;#fcfcfc&quot; style=&quot;font-size: 19px;&quot;&gt;CLI&lt;/font&gt;" style="text;html=1;align=center;verticalAlign=middle;whiteSpace=wrap;rounded=0;fontSize=19;fontStyle=1" vertex="1" parent="yKpZXCygpYI2y_Z9jmT1-208">
          <mxGeometry x="9.6" y="12.733333333333333" width="110.39999999999999" height="24.541666666666668" as="geometry" />
        </mxCell>
        <mxCell id="yKpZXCygpYI2y_Z9jmT1-211" value="" style="group;fontStyle=1" vertex="1" connectable="0" parent="1">
          <mxGeometry x="380" y="230" width="180" height="75" as="geometry" />
        </mxCell>
        <mxCell id="yKpZXCygpYI2y_Z9jmT1-212" value="" style="rounded=1;whiteSpace=wrap;html=1;fillColor=#595900;fontStyle=1" vertex="1" parent="yKpZXCygpYI2y_Z9jmT1-211">
          <mxGeometry width="120" height="50" as="geometry" />
        </mxCell>
        <mxCell id="yKpZXCygpYI2y_Z9jmT1-213" value="&lt;font color=&quot;#fcfcfc&quot; style=&quot;font-size: 19px;&quot;&gt;GUI&lt;/font&gt;" style="text;html=1;align=center;verticalAlign=middle;whiteSpace=wrap;rounded=0;fontSize=19;fontStyle=1" vertex="1" parent="yKpZXCygpYI2y_Z9jmT1-211">
          <mxGeometry x="9.6" y="12.733333333333333" width="110.39999999999999" height="24.541666666666668" as="geometry" />
        </mxCell>
        <mxCell id="yKpZXCygpYI2y_Z9jmT1-219" value="" style="group" vertex="1" connectable="0" parent="1">
          <mxGeometry x="460" y="550" width="280" height="130" as="geometry" />
        </mxCell>
        <mxCell id="yKpZXCygpYI2y_Z9jmT1-214" value="" style="strokeWidth=2;html=1;shape=mxgraph.flowchart.annotation_2;align=left;labelPosition=right;pointerEvents=1;rotation=-180;" vertex="1" parent="yKpZXCygpYI2y_Z9jmT1-219">
          <mxGeometry y="14.29" width="50" height="91.2" as="geometry" />
        </mxCell>
        <mxCell id="yKpZXCygpYI2y_Z9jmT1-215" value="" style="group;fontStyle=1" vertex="1" connectable="0" parent="yKpZXCygpYI2y_Z9jmT1-219">
          <mxGeometry x="50" y="30" width="230" height="100" as="geometry" />
        </mxCell>
        <mxCell id="yKpZXCygpYI2y_Z9jmT1-216" value="" style="rounded=1;whiteSpace=wrap;html=1;fillColor=#994C00;fontStyle=1" vertex="1" parent="yKpZXCygpYI2y_Z9jmT1-215">
          <mxGeometry y="-36.36363636363636" width="230" height="118.18181818181817" as="geometry" />
        </mxCell>
        <mxCell id="yKpZXCygpYI2y_Z9jmT1-218" value="&lt;div style=&quot;font-size: 14px;&quot;&gt;&lt;span style=&quot;font-size: 14px; color: rgb(252, 252, 252); background-color: initial;&quot;&gt;&lt;font style=&quot;font-size: 14px;&quot; face=&quot;Verdana&quot;&gt;the programs and utilities are written separately&lt;/font&gt;&lt;/span&gt;&lt;/div&gt;" style="text;html=1;align=left;verticalAlign=middle;whiteSpace=wrap;rounded=0;fontSize=14;fontStyle=2;horizontal=1;" vertex="1" parent="yKpZXCygpYI2y_Z9jmT1-215">
          <mxGeometry x="3.33" y="9.09090909090909" width="216.67" height="45.45454545454545" as="geometry" />
        </mxCell>
        <mxCell id="yKpZXCygpYI2y_Z9jmT1-217" value="&lt;font style=&quot;font-size: 20px;&quot; color=&quot;#fcfcfc&quot;&gt;GNU&lt;/font&gt;" style="text;html=1;align=center;verticalAlign=middle;whiteSpace=wrap;rounded=0;fontSize=20;fontStyle=1" vertex="1" parent="yKpZXCygpYI2y_Z9jmT1-219">
          <mxGeometry x="53.33000000000004" width="76.67" height="20" as="geometry" />
        </mxCell>
        <mxCell id="yKpZXCygpYI2y_Z9jmT1-220" value="" style="group" vertex="1" connectable="0" parent="1">
          <mxGeometry x="440" y="690" width="280" height="104.49" as="geometry" />
        </mxCell>
        <mxCell id="yKpZXCygpYI2y_Z9jmT1-222" value="" style="group;fontStyle=1" vertex="1" connectable="0" parent="yKpZXCygpYI2y_Z9jmT1-220">
          <mxGeometry x="50" y="23.136024798878143" width="230" height="77.12008266292715" as="geometry" />
        </mxCell>
        <mxCell id="yKpZXCygpYI2y_Z9jmT1-223" value="" style="rounded=1;whiteSpace=wrap;html=1;fillColor=#994C00;fontStyle=1" vertex="1" parent="yKpZXCygpYI2y_Z9jmT1-222">
          <mxGeometry y="-28.04366642288259" width="230" height="91.14191587436844" as="geometry" />
        </mxCell>
        <mxCell id="yKpZXCygpYI2y_Z9jmT1-224" value="&lt;div style=&quot;font-size: 14px;&quot;&gt;&lt;span style=&quot;font-size: 14px; color: rgb(252, 252, 252); background-color: initial;&quot;&gt;&lt;font style=&quot;font-size: 14px;&quot; face=&quot;Verdana&quot;&gt;is the kernel not the entire operating system&lt;/font&gt;&lt;/span&gt;&lt;/div&gt;" style="text;html=1;align=left;verticalAlign=middle;whiteSpace=wrap;rounded=0;fontSize=14;fontStyle=2;horizontal=1;" vertex="1" parent="yKpZXCygpYI2y_Z9jmT1-222">
          <mxGeometry x="3.33" y="7.010916605720648" width="216.67" height="35.05458302860325" as="geometry" />
        </mxCell>
        <mxCell id="yKpZXCygpYI2y_Z9jmT1-225" value="&lt;font style=&quot;font-size: 20px;&quot; color=&quot;#fcfcfc&quot;&gt;Linux&lt;/font&gt;" style="text;html=1;align=center;verticalAlign=middle;whiteSpace=wrap;rounded=0;fontSize=20;fontStyle=1" vertex="1" parent="yKpZXCygpYI2y_Z9jmT1-220">
          <mxGeometry x="53.33000000000004" width="76.67" height="15.424016532585428" as="geometry" />
        </mxCell>
        <mxCell id="yKpZXCygpYI2y_Z9jmT1-221" value="" style="strokeWidth=2;html=1;shape=mxgraph.flowchart.annotation_2;align=left;labelPosition=right;pointerEvents=1;rotation=-180;" vertex="1" parent="1">
          <mxGeometry x="440" y="665.51" width="50" height="128.98" as="geometry" />
        </mxCell>
      </root>
    </mxGraphModel>
  </diagram>
</mxfile>
